<?xml version="1.0" encoding="UTF-8"?>
<svg id="Layer_2" data-name="Layer 2" xmlns="http://www.w3.org/2000/svg" viewBox="0 0 263.81 50.47">
  <defs>
    <style>
      .cls-1 {
        fill: #79530b;
      }

      .cls-2 {
        fill: #516a6a;
      }
    </style>
  </defs>
  <g id="logo">
    <g>
      <g>
        <g>
          <path class="cls-1" d="M169.55,24.62c0,2.32,1.6,3.92,3.98,4.7v.52c-1.37-.33-2.45-1.21-3.13-1.21s-.88.59-.88,1.24h-.49v-5.26h.52ZM178.17,26.58c0-.72-.46-1.47-1.37-2.09l-4.86-3.3c-1.47-.98-2.32-2.51-2.32-3.95,0-2.42,1.57-4.11,3.92-4.47v.49c-1.27.26-2.15.95-2.15,1.89,0,1.01.69,1.44,2.12,2.42l3.39,2.32c2.35,1.6,2.9,3.1,2.9,4.77,0,2.58-2.06,5.09-5.29,5.22v-.49c2.09-.16,3.66-1.34,3.66-2.81ZM174.52,13.29v-.52c1.4.07,2.38,1.08,3.04,1.08.55,0,.69-.49.69-1.08h.52v4.54h-.55c0-2.06-1.89-3.92-3.69-4.01Z"/>
          <path class="cls-1" d="M183.72,26.38v-12.93h-1.99v-.42c2.87,0,4.93-2.25,4.93-4.96h.52v4.86h3.3v.52h-3.3v16.42c-1.89,0-3.46-1.24-3.46-3.49ZM190.15,26.38h.52c0,1.93-1.21,3.2-2.97,3.46v-.52c1.44-.23,2.45-1.31,2.45-2.94Z"/>
          <path class="cls-1" d="M193.94,26.09v-12.63h-1.8v-.52h5.19v14.88c0,.82.39,1.24,1.01,1.24,1.14,0,2.28-1.11,2.35-2.81h.52c0,1.99-1.63,3.62-3.66,3.62-2.22,0-3.62-1.4-3.62-3.79ZM199.91,13.46v-.52h5.19v16.26h1.8v.52h-5.19V13.46h-1.8Z"/>
          <path class="cls-1" d="M209.44,26.22v-9.79c0-2.12,1.44-3.66,3.62-3.66s3.66,1.63,3.66,3.66h-.52c0-1.27-.98-3-2.35-3-.2,0-.98-.03-.98,1.04v13.71c0,1.08.78,1.04.98,1.04,1.37,0,2.35-1.73,2.35-3h.52c0,2.02-1.44,3.66-3.66,3.66s-3.62-1.53-3.62-3.66ZM222.43,29.71h-5.19V4.9h-1.8v-.52h5.19v24.81h1.8v.52Z"/>
          <path class="cls-1" d="M225.53,29.19v-15.73h-1.8v-.52h5.19v16.26h1.8v.52h-6.99v-.52h1.8ZM225.27,6.44c0-1.08.88-1.96,1.96-1.96s1.96.88,1.96,1.96-.88,1.99-1.96,1.99-1.96-.88-1.96-1.99Z"/>
          <path class="cls-1" d="M233.07,24.42v-6.23c0-3.13,2.15-5.12,4.9-5.39v.52c-.85.23-1.47.65-1.47,2.22v11.52c0,1.57.62,1.99,1.47,2.22v.52c-2.74-.26-4.9-2.25-4.9-5.39ZM240.35,27.07v-11.52c0-1.57-.62-1.99-1.47-2.22v-.52c2.77.23,4.93,2.22,4.93,5.39v6.23c0,3.17-2.15,5.16-4.93,5.39v-.52c.85-.23,1.47-.65,1.47-2.22Z"/>
        </g>
        <g>
          <path class="cls-2" d="M35.77,29.03V4.74h-1.8v-.52h5.19v25.33h-5.19v-.52h1.8ZM39.69,26.06h.52c0,1.27.98,3,2.35,3,.2,0,.98.03.98-1.04v-13.71c0-1.08-.78-1.04-.98-1.04-1.37,0-2.35,1.73-2.35,3h-.52c0-2.02,1.44-3.66,3.66-3.66s3.62,1.53,3.62,3.66v9.79c0,2.12-1.44,3.66-3.62,3.66s-3.66-1.63-3.66-3.66Z"/>
          <path class="cls-2" d="M49.64,25.73v-1.83c0-2.64,1.63-3.95,3.66-3.95s3.69,1.63,3.69,3.62h-.52c0-1.6-1.37-2.84-2.32-2.84-.59,0-.91.39-.91,1.34v5.52c0,.91.36,1.34,1.01,1.34.95,0,2.22-1.08,2.22-2.87h.52c0,2.02-1.7,3.66-3.69,3.66s-3.66-1.31-3.66-3.98ZM51.63,16.36c0-1.08.88-1.96,1.96-1.96s1.96.88,1.96,1.96-.88,1.99-1.96,1.99-1.96-.88-1.96-1.99ZM57.48,25.76v-11.36c0-.91-.69-1.14-1.37-1.14-.75,0-1.34.23-1.89.49l-.26-.42c.75-.46,1.63-.72,2.55-.72,2.64,0,4.57,1.67,4.57,4.54v11.88h1.8v.52h-1.8c-2.48,0-3.59-1.37-3.59-3.79Z"/>
          <path class="cls-2" d="M65.9,29.03V4.74h-1.8v-.52h5.19v24.81h1.83v.52h-7.02v-.52h1.8ZM74.94,29.03l-5.16-8.78,2.87-1.66,5.71,10.45h1.8v.52h-7.02v-.52h1.8ZM73.5,14.57c0-1.08.88-1.96,1.99-1.96s1.96.88,1.96,1.96-.88,1.96-1.96,1.96-1.99-.88-1.99-1.96Z"/>
          <path class="cls-2" d="M80.68,24.33v-6.33c0-3.17,2.15-5.12,4.9-5.39v.52c-.85.2-1.47.78-1.47,1.89v11.98c0,1.21.2,1.83,1.47,2.19v.52c-3.07-.29-4.9-2.25-4.9-5.39ZM88.03,20.67v-5.65c0-1.11-.62-1.7-1.47-1.89v-.52c2.77.23,4.93,2.22,4.93,5.39v3.2h-6.89v-.52h3.43ZM90.9,24.33h.52c0,2.84-2.19,5.12-4.93,5.39v-.52c2.38-.23,4.41-2.32,4.41-4.86Z"/>
          <path class="cls-2" d="M95.5,29.03V4.74h-1.8v-.52h5.19v25.33h-5.19v-.52h1.8ZM103.3,29.03v-14.36c0-.82-.39-1.24-1.01-1.24-1.14,0-2.28,1.11-2.35,2.81h-.52c0-1.99,1.63-3.62,3.66-3.62,2.22,0,3.62,1.4,3.62,3.79v12.63h1.8v.52h-6.99v-.52h1.8Z"/>
          <path class="cls-2" d="M110.81,24.26v-6.23c0-3.13,2.15-5.12,4.9-5.39v.52c-.85.23-1.47.65-1.47,2.22v11.52c0,1.57.62,1.99,1.47,2.22v.52c-2.74-.26-4.9-2.25-4.9-5.39ZM118.09,26.91v-11.52c0-1.57-.62-1.99-1.47-2.22v-.52c2.77.23,4.93,2.22,4.93,5.39v6.23c0,3.17-2.15,5.16-4.93,5.39v-.52c.85-.23,1.47-.65,1.47-2.22Z"/>
          <path class="cls-2" d="M125.69,25.93v-12.63h-1.8v-.52h5.19v14.88c0,.82.39,1.24,1.01,1.24,1.14,0,2.28-1.11,2.35-2.81h.52c0,1.99-1.63,3.62-3.66,3.62-2.22,0-3.62-1.4-3.62-3.79ZM131.66,13.29v-.52h5.19v16.26h1.8v.52h-5.19V13.29h-1.8Z"/>
          <path class="cls-2" d="M140.93,24.46c0,2.32,1.6,3.92,3.98,4.7v.52c-1.37-.33-2.45-1.21-3.13-1.21s-.88.59-.88,1.24h-.49v-5.26h.52ZM149.55,26.42c0-.72-.46-1.47-1.37-2.09l-4.86-3.3c-1.47-.98-2.32-2.51-2.32-3.95,0-2.42,1.57-4.11,3.92-4.47v.49c-1.27.26-2.15.95-2.15,1.89,0,1.01.69,1.44,2.12,2.42l3.39,2.32c2.35,1.6,2.91,3.1,2.91,4.77,0,2.58-2.06,5.09-5.29,5.22v-.49c2.09-.16,3.66-1.34,3.66-2.81ZM145.89,13.13v-.52c1.4.07,2.38,1.08,3.04,1.08.55,0,.69-.49.69-1.08h.52v4.54h-.56c0-2.06-1.89-3.92-3.69-4.01Z"/>
          <path class="cls-2" d="M153.99,24.33v-6.33c0-3.17,2.15-5.12,4.9-5.39v.52c-.85.2-1.47.78-1.47,1.89v11.98c0,1.21.2,1.83,1.47,2.19v.52c-3.07-.29-4.9-2.25-4.9-5.39ZM161.33,20.67v-5.65c0-1.11-.62-1.7-1.47-1.89v-.52c2.77.23,4.93,2.22,4.93,5.39v3.2h-6.89v-.52h3.43ZM164.2,24.33h.52c0,2.84-2.19,5.12-4.93,5.39v-.52c2.38-.23,4.41-2.32,4.41-4.86Z"/>
        </g>
        <g>
          <g>
            <path class="cls-1" d="M12.6,2.43l-1.72,1.72v11.79s10.36-10.36,10.36-10.36c.27-.74.49-2.72-.96-4.17-2.51-2.51-5.29-1.37-7.68,1.02Z"/>
            <path class="cls-1" d="M8.75,6.28l-3.36,3.36-2.96,2.96C.04,14.99-1.09,17.77,1.41,20.28c1.45,1.45,3.43,1.23,4.17.96l3.17-3.17V6.28Z"/>
          </g>
          <g>
            <path class="cls-1" d="M22.97,6.74l-2.44,2.44v13.28s4.42-4.42,4.42-4.42l2.5-2.5c2.55-2.55,3.17-5.37.69-7.85-1.55-1.55-3.68-1.68-5.17-.94Z"/>
            <path class="cls-1" d="M18.31,11.4c-3.98,3.98-11.1,11.1-11.83,11.83-.74,1.49-.61,3.62.94,5.17,2.49,2.49,5.31,1.86,7.85-.69l3.03-3.03v-13.28Z"/>
          </g>
        </g>
      </g>
      <g>
        <path class="cls-2" d="M119.27,47.49h-.78l-2.85-5.6h1.76l1.47,3.23,1.5-3.23h.72l1.5,3.23,1.48-3.23h1.76l-2.85,5.6h-.78l-1.48-3.3-1.47,3.3Z"/>
        <path class="cls-2" d="M131.97,45.93c-.17.41-.8,1.75-2.76,1.75-.91,0-1.59-.26-2.15-.79-.62-.58-.88-1.31-.88-2.19,0-1.11.45-1.8.85-2.2.66-.65,1.44-.79,2.11-.79,1.14,0,1.8.45,2.19.92.6.71.67,1.59.67,2.2v.13h-4.19c0,.34.09.7.27.94.17.23.52.53,1.13.53s1.05-.28,1.31-.74l1.45.23ZM130.52,43.95c-.13-.76-.75-1.13-1.33-1.13s-1.19.38-1.32,1.13h2.65Z"/>
        <path class="cls-2" d="M134.8,42.62c.56-.78,1.35-.91,1.82-.91,1.66,0,2.76,1.28,2.76,2.98s-1.14,2.99-2.79,2.99c-.36,0-1.18-.06-1.79-.91v.72h-1.58v-9.43h1.58v4.55ZM134.65,44.69c0,.89.65,1.59,1.55,1.59s1.55-.7,1.55-1.59-.65-1.58-1.55-1.58-1.55.69-1.55,1.58Z"/>
        <path class="cls-2" d="M147.9,38.06h1.58v9.43h-1.58v-.72c-.57.82-1.32.91-1.72.91-1.72,0-2.86-1.35-2.86-2.99s1.13-2.98,2.78-2.98c.43,0,1.27.08,1.8.91v-4.55ZM144.95,44.69c0,.89.65,1.59,1.55,1.59s1.55-.7,1.55-1.59-.65-1.58-1.55-1.58-1.55.69-1.55,1.58Z"/>
        <path class="cls-2" d="M156.48,45.93c-.17.41-.8,1.75-2.76,1.75-.91,0-1.59-.26-2.15-.79-.62-.58-.88-1.31-.88-2.19,0-1.11.45-1.8.85-2.2.66-.65,1.44-.79,2.11-.79,1.14,0,1.8.45,2.19.92.6.71.67,1.59.67,2.2v.13h-4.19c0,.34.09.7.27.94.17.23.52.53,1.13.53s1.05-.28,1.31-.74l1.45.23ZM155.03,43.95c-.13-.76-.75-1.13-1.33-1.13s-1.19.38-1.32,1.13h2.65Z"/>
        <path class="cls-2" d="M160.78,43.22c-.38-.35-.75-.38-.92-.38-.38,0-.61.18-.61.45,0,.14.06.36.5.5l.38.12c.44.14,1.1.36,1.42.8.17.23.28.57.28.93,0,.5-.17,1.01-.62,1.42-.45.41-1,.6-1.68.6-1.16,0-1.82-.56-2.17-.93l.83-.96c.31.36.78.65,1.24.65.44,0,.78-.22.78-.61,0-.35-.28-.49-.49-.57l-.36-.13c-.4-.14-.87-.32-1.2-.67-.26-.27-.43-.62-.43-1.07,0-.54.26-1,.58-1.27.44-.35,1.01-.4,1.46-.4.41,0,1.07.05,1.79.59l-.78.92Z"/>
        <path class="cls-2" d="M163.74,38.58c.52,0,.94.43.94.94s-.43.94-.94.94-.94-.43-.94-.94.43-.94.94-.94ZM164.53,41.89v5.6h-1.58v-5.6h1.58Z"/>
        <path class="cls-2" d="M170.3,41.89h1.58v5.34c0,.85-.08,1.75-.78,2.45-.39.39-1.06.79-2.21.79-1.09,0-1.73-.32-2.1-.65-.44-.38-.78-1.04-.91-1.67h1.71c.06.26.21.52.39.67.31.28.74.3.96.3.45,0,.75-.16.96-.35.36-.35.4-.79.4-1.24v-.79c-.54.83-1.29.93-1.72.93-.75,0-1.4-.23-1.94-.76-.41-.41-.89-1.14-.89-2.23,0-.88.32-1.69.87-2.23.49-.48,1.18-.75,1.93-.75,1.05,0,1.54.57,1.76.91v-.72ZM167.88,43.5c-.26.23-.5.61-.5,1.19,0,.49.18.85.41,1.1.34.36.76.49,1.14.49s.78-.14,1.05-.39c.32-.3.5-.75.5-1.2,0-.53-.23-.89-.45-1.13-.31-.32-.67-.45-1.1-.45-.5,0-.85.21-1.05.39Z"/>
        <path class="cls-2" d="M173.38,41.89h1.58v.72c.3-.41.83-.91,1.73-.91.49,0,1.22.14,1.66.69.39.48.44,1.04.44,1.58v3.52h-1.58v-3.05c0-.31-.01-.8-.3-1.1-.25-.26-.58-.28-.74-.28-.41,0-.74.14-.97.49-.23.36-.25.76-.25,1.09v2.86h-1.58v-5.6Z"/>
      </g>
      <g>
        <path class="cls-2" d="M196.65,38.06h1.58v9.43h-1.58v-.72c-.57.82-1.32.91-1.72.91-1.72,0-2.86-1.35-2.86-2.99s1.13-2.98,2.78-2.98c.43,0,1.27.08,1.8.91v-4.55ZM193.7,44.69c0,.89.65,1.59,1.55,1.59s1.55-.7,1.55-1.59-.65-1.58-1.55-1.58-1.55.69-1.55,1.58Z"/>
        <path class="cls-2" d="M205.22,45.93c-.17.41-.8,1.75-2.76,1.75-.91,0-1.59-.26-2.15-.79-.62-.58-.88-1.31-.88-2.19,0-1.11.45-1.8.85-2.2.66-.65,1.44-.79,2.11-.79,1.14,0,1.8.45,2.19.92.6.71.67,1.59.67,2.2v.13h-4.19c0,.34.09.7.27.94.17.23.52.53,1.13.53s1.05-.28,1.31-.74l1.45.23ZM203.77,43.95c-.13-.76-.75-1.13-1.33-1.13s-1.19.38-1.32,1.13h2.65Z"/>
        <path class="cls-2" d="M207.38,41.89l1.47,3.16,1.48-3.16h1.76l-2.82,5.6h-.83l-2.82-5.6h1.76Z"/>
        <path class="cls-2" d="M218.23,45.93c-.17.41-.8,1.75-2.76,1.75-.91,0-1.59-.26-2.15-.79-.62-.58-.88-1.31-.88-2.19,0-1.11.45-1.8.85-2.2.66-.65,1.44-.79,2.11-.79,1.14,0,1.8.45,2.19.92.6.71.67,1.59.67,2.2v.13h-4.19c0,.34.09.7.27.94.17.23.52.53,1.13.53s1.05-.28,1.31-.74l1.45.23ZM216.78,43.95c-.13-.76-.75-1.13-1.33-1.13s-1.19.38-1.32,1.13h2.65Z"/>
        <path class="cls-2" d="M221.06,38.06v9.43h-1.58v-9.43h1.58Z"/>
        <path class="cls-2" d="M227.75,42.5c.56.5.94,1.28.94,2.2s-.39,1.68-.94,2.19c-.48.44-1.2.79-2.26.79s-1.79-.35-2.26-.79c-.56-.5-.94-1.28-.94-2.19s.39-1.69.94-2.2c.48-.44,1.2-.79,2.26-.79s1.79.35,2.26.79ZM227.06,44.7c0-.88-.67-1.59-1.58-1.59s-1.58.71-1.58,1.59.66,1.58,1.58,1.58,1.58-.72,1.58-1.58Z"/>
        <path class="cls-2" d="M231.48,50.46h-1.58v-8.57h1.58v.72c.25-.35.79-.91,1.82-.91.49,0,1.28.12,1.91.75.41.41.84,1.11.84,2.23,0,1.27-.56,1.95-.88,2.26-.43.4-1.07.72-1.9.72-.39,0-1.18-.06-1.8-.91v3.69ZM231.86,43.48c-.35.3-.53.69-.53,1.2s.21.94.52,1.22c.21.18.54.38,1.04.38.52,0,.85-.21,1.06-.4.34-.31.49-.78.49-1.19s-.17-.88-.48-1.18c-.28-.26-.7-.4-1.07-.4-.41,0-.74.12-1.02.38Z"/>
        <path class="cls-2" d="M237.28,41.89h1.58v.63c.59-.75,1.33-.81,1.67-.81,1.18,0,1.63.74,1.77,1.02.27-.44.83-1.02,1.8-1.02.87,0,1.29.4,1.51.69.36.48.39.96.39,1.58v3.52h-1.58v-3.05c0-.66-.14-.96-.26-1.1-.21-.26-.49-.28-.65-.28-.43,0-.7.19-.87.49-.21.34-.22.79-.22,1.09v2.86h-1.58v-3.05c0-.66-.14-.96-.26-1.1-.21-.26-.49-.28-.65-.28-.43,0-.7.19-.87.49-.21.34-.22.79-.22,1.09v2.86h-1.58v-5.6Z"/>
        <path class="cls-2" d="M252.99,45.93c-.17.41-.8,1.75-2.76,1.75-.91,0-1.59-.26-2.15-.79-.62-.58-.88-1.31-.88-2.19,0-1.11.45-1.8.85-2.2.66-.65,1.44-.79,2.11-.79,1.14,0,1.8.45,2.19.92.6.71.67,1.59.67,2.2v.13h-4.19c0,.34.09.7.27.94.17.23.52.53,1.13.53s1.05-.28,1.31-.74l1.45.23ZM251.54,43.95c-.13-.76-.75-1.13-1.33-1.13s-1.19.38-1.32,1.13h2.65Z"/>
        <path class="cls-2" d="M254.24,41.89h1.58v.72c.3-.41.83-.91,1.73-.91.49,0,1.22.14,1.66.69.39.48.44,1.04.44,1.58v3.52h-1.58v-3.05c0-.31-.01-.8-.3-1.1-.25-.26-.58-.28-.74-.28-.41,0-.74.14-.97.49-.23.36-.25.76-.25,1.09v2.86h-1.58v-5.6Z"/>
        <path class="cls-2" d="M262.73,43.24v4.26h-1.58v-4.26h-.62v-1.35h.62v-1.91h1.58v1.91h1.09v1.35h-1.09Z"/>
      </g>
      <path class="cls-2" d="M182.71,43.71h2.34v-2.23h.93v2.23h2.34v.85h-2.34v2.23h-.93v-2.23h-2.34v-.85Z"/>
    </g>
  </g>
</svg>