<?xml version="1.0" encoding="UTF-8"?>
<svg id="Layer_2" data-name="Layer 2" xmlns="http://www.w3.org/2000/svg" viewBox="0 0 358.81 30.7">
  <defs>
    <style>
      .cls-1 {
        fill: #79530b;
      }

      .cls-2 {
        fill: #516a6a;
      }
    </style>
  </defs>
  <g id="home_page" data-name="home page">
    <g>
      <path class="cls-1" d="M51.19,12.64c1.84.61,3.49,2.49,3.49,5.04,0,4.1-2.84,5.91-7.04,5.91h-12.15v-1.81l2.59-.45V5.17l-2.59-.45v-1.81h11.18c3.94,0,7.17,1.36,7.17,5.49,0,2.39-1.81,3.85-2.65,4.23ZM46.96,11.67c2.97,0,4.07-1.13,4.07-3.3,0-1.81-.94-2.97-3.94-2.97h-6.24v6.27h6.11ZM47.31,21.1c3.39,0,4.56-1.13,4.56-3.59,0-2.07-1.26-3.36-4.49-3.36h-6.53v6.95h6.46Z"/>
      <path class="cls-1" d="M67.74,21.91c-.16.16-2.04,2.07-5.72,2.07-3.13,0-5.72-1.55-5.72-4.88s2.78-5.04,6.79-5.04c2.23,0,3.91.58,4.3.71v-.94c0-2.39-1.78-3.39-4.78-3.39-2.23,0-4.07,1.03-4.3,1.16l-1.03-1.87c.29-.19,2.36-1.65,5.88-1.65,4.04,0,6.88,1.75,6.88,6.08v7.24l2.59.39v1.81h-4.14l-.74-1.68ZM67.39,16.93c-.26-.1-1.78-.68-4.17-.68s-4.4.68-4.4,2.75c0,1.84,1.23,2.71,3.59,2.71,2.81,0,4.36-1.13,4.98-1.78v-3.01Z"/>
      <path class="cls-1" d="M82.35,14.8l5.14,6.59,2.13.39v1.81h-3.65l-5.69-7.4h-2.55v5.2l1.94.39v1.81h-7.17v-1.81l2.59-.39V2.59l-2.52-.32V.32l5.17-.32v13.93h2.42l2.59-2.84c1.89-2.08,3.14-3.01,4.49-3.01,1.23,0,2.49.78,2.49,2.2,0,1-.74,1.84-1.71,1.84-.78,0-1.45-.55-1.45-1.32,0-.23.06-.32.1-.39-.58,0-1.62,1.23-1.97,1.65l-2.33,2.75Z"/>
      <path class="cls-1" d="M103.98,20.52l1.13,1.75c-.16.13-2.55,1.84-6.21,1.84-4.75,0-8.08-2.84-8.08-7.89s3.2-8.14,7.72-8.14c5.14,0,7.11,3.46,7.11,6.88,0,1.33-.29,2.04-.36,2.2h-11.89c.23,2.88,2.23,4.72,5.53,4.72,2.94,0,4.85-1.23,5.04-1.36ZM103.17,14.93c.02-.15.03-.34.03-.55,0-1.58-.81-4.04-4.69-4.04-2.62,0-4.65,1.68-5.07,4.59h9.73Z"/>
      <path class="cls-1" d="M106.66,2.26V.32l5.17-.32v10.34c.52-.55,2.39-2.26,5.69-2.26s6.24,1.81,6.24,6.62v6.69l2.59.39v1.81h-7.5v-1.81l2.26-.39v-6.37c0-3.36-1.29-4.59-4.2-4.59s-4.62,2.23-5.07,3.1v7.85l2.59.39v1.81h-7.5v-1.81l2.26-.39V2.59l-2.52-.32Z"/>
      <path class="cls-1" d="M143.48,16.09c0,4.85-3.56,8.02-8.24,8.02s-8.31-3.17-8.31-8.02,3.59-8.01,8.31-8.01,8.24,3.13,8.24,8.01ZM140.8,16.09c0-3.3-2.1-5.72-5.56-5.72s-5.62,2.42-5.62,5.72,2.13,5.79,5.62,5.79,5.56-2.46,5.56-5.79Z"/>
      <path class="cls-1" d="M158.35,21.65c-.19.23-2.13,2.33-5.79,2.33-4.1,0-6.11-2.17-6.11-6.95v-6.17l-2.46-.45v-1.81h5.11v8.34c0,3.3.71,4.75,3.78,4.75,2.84,0,4.72-2.04,5.17-2.84v-7.98l-2.62-.45v-1.81h5.27v12.8l2.59.39v1.81h-4.1l-.84-1.94Z"/>
      <path class="cls-1" d="M175.45,19.58c0-1.62-2.26-2.04-4.69-2.46-2.94-.52-6.14-1.39-6.14-4.49,0-2.94,2.52-4.56,6.5-4.56,3.26,0,6.56,1.23,6.56,3.46,0,1-.74,1.68-1.58,1.68-1.1,0-1.58-.68-1.58-1.39,0-.36.16-.68.19-.74-.65-.39-2-.78-3.3-.78-2.75,0-4.27.74-4.27,2.17,0,1.52,1.91,1.94,4.69,2.42,2.59.45,6.14,1.32,6.14,4.62,0,2.84-2.36,4.59-6.69,4.59-3.59,0-6.95-1.1-6.95-3.49,0-.81.68-1.62,1.68-1.62.91,0,1.49.65,1.49,1.36,0,.39-.16.71-.19.74.52.42,2.07.81,3.75.81,3.01,0,4.4-.68,4.4-2.33Z"/>
      <path class="cls-1" d="M192.87,20.52l1.13,1.75c-.16.13-2.55,1.84-6.21,1.84-4.75,0-8.08-2.84-8.08-7.89s3.2-8.14,7.72-8.14c5.14,0,7.11,3.46,7.11,6.88,0,1.33-.29,2.04-.36,2.2h-11.89c.23,2.88,2.23,4.72,5.53,4.72,2.94,0,4.85-1.23,5.04-1.36ZM192.06,14.93c.02-.15.03-.34.03-.55,0-1.58-.81-4.04-4.69-4.04-2.62,0-4.65,1.68-5.07,4.59h9.73Z"/>
    </g>
    <g>
      <path class="cls-2" d="M217.22,10.02v-1.29h6.08v1.29l-1.84.32-4.4,13.31h-2.26l-3.91-11.05-4.23,11.05h-2.26l-4.14-13.31-1.84-.32v-1.29h6.3v1.29l-2.36.32,2.52,9.05c.23.81.55,2.07.71,2.81.23-.74.65-1.94.94-2.75l3.2-8.53h2.46l2.91,8.56c.27.81.68,2.04.87,2.75.16-.68.52-1.97.78-2.78l2.84-9.11-2.36-.32Z"/>
      <path class="cls-2" d="M236.56,20.78l.97,1.29c-.42.36-2.71,2.04-6.04,2.04-4.49,0-7.82-3.01-7.82-7.76s3.1-8.14,7.4-8.14c4.82,0,6.95,3.33,6.95,6.66,0,.87-.16,1.68-.26,1.97h-12.05c.06,3.39,2.49,5.56,5.91,5.56,2.68,0,4.43-1.26,4.94-1.62ZM236.04,15.22c.06-.42.06-.48.06-.81,0-1.75-1-4.46-5.11-4.46-2.75,0-4.98,1.97-5.27,5.27h10.31Z"/>
      <path class="cls-2" d="M238.5,1.78V.45l4.4-.26v9.99c.84-.74,2.75-1.97,5.14-1.97,4.04,0,7.53,2.65,7.53,7.66,0,4.75-3.88,8.24-8.44,8.24-3.39,0-5.56-1.39-6.21-1.84V2.13l-2.42-.36ZM242.89,21.43c1.03.55,2.2,1,4.23,1,3.75,0,6.4-2.84,6.4-6.43s-1.94-6.04-5.59-6.04c-2.68,0-4.52,1.78-5.04,2.36v9.11Z"/>
      <path class="cls-2" d="M265.33.45l-6.46,24.46h-1.78l6.46-24.46h1.78Z"/>
      <path class="cls-2" d="M274.93,1.78V.45l4.69-.26v21.78l2.42.32v1.29h-3.65l-.55-1.91c-.52.58-2.39,2.42-5.66,2.42-3.46,0-7.21-2.55-7.21-7.69,0-4.43,3.33-8.21,8.11-8.21,2.07,0,3.62.55,4.56.94V2.13l-2.71-.36ZM277.64,11.02c-.74-.45-2.29-1.07-4.3-1.07-4.4,0-6.33,3.3-6.33,6.46,0,3.88,2.36,6.01,5.3,6.01,3.36,0,5.07-2.36,5.33-2.75v-8.66Z"/>
      <path class="cls-2" d="M296.1,20.78l.97,1.29c-.42.36-2.71,2.04-6.04,2.04-4.49,0-7.82-3.01-7.82-7.76s3.1-8.14,7.4-8.14c4.82,0,6.95,3.33,6.95,6.66,0,.87-.16,1.68-.26,1.97h-12.05c.06,3.39,2.49,5.56,5.91,5.56,2.68,0,4.43-1.26,4.94-1.62ZM295.58,15.22c.06-.42.06-.48.06-.81,0-1.75-1-4.46-5.11-4.46-2.75,0-4.98,1.97-5.27,5.27h10.31Z"/>
      <path class="cls-2" d="M310.48,19.71c0-1.97-2.39-2.46-4.91-2.97-2.84-.58-5.85-1.26-5.85-4.2,0-2.36,2.46-4.33,6.24-4.33,3.04,0,6.27,1.45,6.27,3.46,0,.97-.65,1.58-1.52,1.58-.68,0-1.36-.55-1.36-1.26,0-.36.19-.74.45-.94-.29-.52-2.1-1.16-3.81-1.16-2.75,0-4.4,1.23-4.4,2.65,0,1.68,2.1,2.17,4.43,2.65,2.97.61,6.3,1.29,6.3,4.62,0,2.59-2.13,4.3-6.24,4.3-3.59,0-6.62-1.42-6.62-3.39,0-.65.55-1.52,1.45-1.52,1,0,1.36.84,1.36,1.23,0,.48-.19.74-.32.87.39.55,1.97,1.2,3.85,1.2,3.1,0,4.69-.78,4.69-2.78Z"/>
      <path class="cls-2" d="M314.36,10.08v-1.36l4.4-.36v13.61l2.26.32v1.29h-6.5v-1.29l2.26-.32v-11.63l-2.42-.26ZM317.73.48c1.1,0,1.87.87,1.87,1.91s-.78,1.84-1.87,1.84-1.87-.84-1.87-1.84.78-1.91,1.87-1.91Z"/>
      <path class="cls-2" d="M335.05,20.1c.68.58,2.39,2.2,2.39,4.88,0,2.84-2.33,5.72-7.69,5.72-3.3,0-6.69-1.78-6.69-3.91,0-.84.61-1.71,1.62-1.71,1.07,0,1.39.84,1.39,1.45,0,.48-.29.84-.58,1,.29.55,1.84,1.52,4.04,1.52,4.2,0,6.04-1.97,6.04-4.04,0-1.75-.68-2.81-1.87-3.81-1.03.52-2.39.94-3.75.94-4.4,0-7.3-2.91-7.3-6.75,0-4.14,3.26-6.92,7.27-6.92,1.39,0,2.71.32,3.75.91.68-.97,2.26-2,3.88-2v2.2c-.9,0-1.94.16-2.62.81,1.36,1.26,2.17,2.94,2.17,4.98s-.78,3.56-2.04,4.75ZM335.18,15.38c0-3.1-2.17-5.17-5.2-5.17s-5.33,1.97-5.33,5.14,2.33,5.11,5.3,5.11,5.24-1.97,5.24-5.07Z"/>
      <path class="cls-2" d="M344.01,11.08c.61-.68,2.78-2.88,6.37-2.88,3.17,0,5.85,1.91,5.85,6.62v7.14l2.59.32v1.29h-6.82v-1.29l2.26-.32v-6.98c0-3.85-1.68-5.01-4.4-5.01s-5.11,2.29-5.62,3.43v8.56l2.59.32v1.29h-6.82v-1.29l2.26-.32v-11.63l-2.75-.32v-1.29l4.1-.26.39,2.62Z"/>
    </g>
    <g>
      <g>
        <path class="cls-1" d="M21.82,4.01h-2.41l-8.26,8.26h14.51c.71-.33,2.25-1.56,2.25-3.59,0-3.51-2.74-4.66-6.09-4.66Z"/>
        <path class="cls-1" d="M16.43,4.01H7.58c-3.35,0-6.09,1.15-6.09,4.66,0,2.03,1.54,3.26,2.25,3.59h4.44l8.26-8.26Z"/>
      </g>
      <g>
        <path class="cls-1" d="M26.06,14.29h-3.42l-9.3,9.3h9.7c3.57,0,5.98-1.54,5.98-5.02,0-2.17-1.4-3.76-2.96-4.28Z"/>
        <path class="cls-1" d="M19.53,14.29H2.96c-1.56.52-2.96,2.11-2.96,4.28,0,3.48,2.41,5.02,5.98,5.02h4.25l9.3-9.3Z"/>
      </g>
    </g>
  </g>
</svg>