<?xml version="1.0" encoding="UTF-8"?>
<svg id="Layer_2" data-name="Layer 2" xmlns="http://www.w3.org/2000/svg" viewBox="0 0 285.61 54.64">
  <defs>
    <style>
      .cls-1 {
        fill: #79530b;
      }

      .cls-2 {
        fill: #516a6a;
      }
    </style>
  </defs>
  <g id="logo">
    <g>
      <g>
        <g>
          <path class="cls-1" d="M183.56,26.65c0,2.51,1.73,4.24,4.31,5.09v.57c-1.48-.35-2.65-1.31-3.39-1.31s-.95.64-.95,1.34h-.53v-5.69h.57ZM192.89,28.77c0-.78-.5-1.59-1.48-2.26l-5.27-3.57c-1.59-1.06-2.51-2.72-2.51-4.28,0-2.62,1.7-4.45,4.24-4.84v.53c-1.38.28-2.33,1.02-2.33,2.05,0,1.1.74,1.55,2.3,2.62l3.68,2.51c2.54,1.73,3.15,3.36,3.15,5.16,0,2.79-2.23,5.51-5.72,5.65v-.53c2.26-.18,3.96-1.45,3.96-3.04ZM188.94,14.39v-.57c1.52.07,2.58,1.17,3.29,1.17.6,0,.74-.53.74-1.17h.57v4.91h-.6c0-2.23-2.05-4.24-3.99-4.35Z"/>
          <path class="cls-1" d="M198.9,28.56v-13.99h-2.16v-.46c3.11,0,5.34-2.44,5.34-5.37h.57v5.27h3.57v.57h-3.57v17.78c-2.05,0-3.75-1.34-3.75-3.78ZM205.86,28.56h.57c0,2.08-1.31,3.46-3.22,3.75v-.57c1.56-.25,2.65-1.41,2.65-3.18Z"/>
          <path class="cls-1" d="M209.96,28.24v-13.68h-1.94v-.57h5.62v16.11c0,.88.42,1.34,1.1,1.34,1.24,0,2.47-1.2,2.54-3.04h.57c0,2.16-1.77,3.92-3.96,3.92-2.4,0-3.92-1.52-3.92-4.1ZM216.43,14.57v-.57h5.62v17.6h1.94v.57h-5.62V14.57h-1.94Z"/>
          <path class="cls-1" d="M226.74,28.38v-10.6c0-2.3,1.55-3.96,3.92-3.96s3.96,1.77,3.96,3.96h-.57c0-1.38-1.06-3.25-2.54-3.25-.21,0-1.06-.04-1.06,1.13v14.84c0,1.17.85,1.13,1.06,1.13,1.48,0,2.54-1.87,2.54-3.25h.57c0,2.19-1.55,3.96-3.96,3.96s-3.92-1.66-3.92-3.96ZM240.81,32.17h-5.62V5.31h-1.94v-.57h5.62v26.86h1.94v.57Z"/>
          <path class="cls-1" d="M244.16,31.6V14.57h-1.94v-.57h5.62v17.6h1.94v.57h-7.56v-.57h1.94ZM243.88,6.97c0-1.17.95-2.12,2.12-2.12s2.12.95,2.12,2.12-.95,2.16-2.12,2.16-2.12-.95-2.12-2.16Z"/>
          <path class="cls-1" d="M252.32,26.44v-6.75c0-3.39,2.33-5.55,5.3-5.83v.57c-.92.25-1.59.71-1.59,2.4v12.48c0,1.7.67,2.16,1.59,2.4v.57c-2.97-.28-5.3-2.44-5.3-5.83ZM260.21,29.3v-12.48c0-1.7-.67-2.16-1.59-2.4v-.57c3,.25,5.34,2.4,5.34,5.83v6.75c0,3.43-2.33,5.58-5.34,5.83v-.57c.92-.25,1.59-.71,1.59-2.4Z"/>
        </g>
        <g>
          <path class="cls-2" d="M38.73,31.43V5.13h-1.94v-.57h5.62v27.42h-5.62v-.57h1.94ZM42.97,28.21h.57c0,1.38,1.06,3.25,2.54,3.25.21,0,1.06.04,1.06-1.13v-14.84c0-1.17-.85-1.13-1.06-1.13-1.48,0-2.54,1.87-2.54,3.25h-.57c0-2.19,1.56-3.96,3.96-3.96s3.92,1.66,3.92,3.96v10.6c0,2.3-1.56,3.96-3.92,3.96s-3.96-1.77-3.96-3.96Z"/>
          <path class="cls-2" d="M53.74,27.86v-1.98c0-2.86,1.77-4.28,3.96-4.28s3.99,1.77,3.99,3.92h-.57c0-1.73-1.48-3.07-2.51-3.07-.64,0-.99.42-.99,1.45v5.97c0,.99.39,1.45,1.1,1.45,1.02,0,2.4-1.17,2.4-3.11h.57c0,2.19-1.84,3.96-3.99,3.96s-3.96-1.41-3.96-4.31ZM55.9,17.71c0-1.17.95-2.12,2.12-2.12s2.12.95,2.12,2.12-.95,2.16-2.12,2.16-2.12-.95-2.12-2.16ZM62.23,27.89v-12.3c0-.99-.74-1.24-1.48-1.24-.81,0-1.45.25-2.05.53l-.28-.46c.81-.5,1.77-.78,2.76-.78,2.86,0,4.95,1.8,4.95,4.91v12.86h1.94v.57h-1.94c-2.69,0-3.89-1.48-3.89-4.1Z"/>
          <path class="cls-2" d="M71.34,31.43V5.13h-1.94v-.57h5.62v26.86h1.98v.57h-7.6v-.57h1.94ZM81.13,31.43l-5.58-9.51,3.11-1.8,6.18,11.31h1.94v.57h-7.6v-.57h1.94ZM79.58,15.77c0-1.17.95-2.12,2.16-2.12s2.12.95,2.12,2.12-.95,2.12-2.12,2.12-2.16-.95-2.16-2.12Z"/>
          <path class="cls-2" d="M87.35,26.34v-6.86c0-3.43,2.33-5.55,5.3-5.83v.57c-.92.21-1.59.85-1.59,2.05v12.97c0,1.31.21,1.98,1.59,2.37v.57c-3.32-.32-5.3-2.44-5.3-5.83ZM95.3,22.38v-6.11c0-1.2-.67-1.84-1.59-2.05v-.57c3,.25,5.34,2.4,5.34,5.83v3.46h-7.46v-.57h3.71ZM98.41,26.34h.57c0,3.07-2.37,5.55-5.34,5.83v-.57c2.58-.25,4.77-2.51,4.77-5.27Z"/>
          <path class="cls-2" d="M103.39,31.43V5.13h-1.94v-.57h5.62v27.42h-5.62v-.57h1.94ZM111.84,31.43v-15.55c0-.88-.42-1.34-1.1-1.34-1.24,0-2.47,1.2-2.54,3.04h-.57c0-2.16,1.77-3.92,3.96-3.92,2.4,0,3.92,1.52,3.92,4.1v13.68h1.94v.57h-7.56v-.57h1.94Z"/>
          <path class="cls-2" d="M119.96,26.27v-6.75c0-3.39,2.33-5.55,5.3-5.83v.57c-.92.25-1.59.71-1.59,2.4v12.48c0,1.7.67,2.16,1.59,2.4v.57c-2.97-.28-5.3-2.44-5.3-5.83ZM127.84,29.13v-12.48c0-1.7-.67-2.16-1.59-2.4v-.57c3,.25,5.34,2.4,5.34,5.83v6.75c0,3.43-2.33,5.58-5.34,5.83v-.57c.92-.25,1.59-.71,1.59-2.4Z"/>
          <path class="cls-2" d="M136.07,28.07v-13.68h-1.94v-.57h5.62v16.11c0,.88.42,1.34,1.1,1.34,1.24,0,2.47-1.2,2.54-3.04h.57c0,2.16-1.77,3.92-3.96,3.92-2.4,0-3.92-1.52-3.92-4.1ZM142.54,14.39v-.57h5.62v17.6h1.94v.57h-5.62V14.39h-1.94Z"/>
          <path class="cls-2" d="M152.58,26.48c0,2.51,1.73,4.24,4.31,5.09v.57c-1.48-.35-2.65-1.31-3.39-1.31s-.95.64-.95,1.34h-.53v-5.69h.57ZM161.91,28.6c0-.78-.49-1.59-1.48-2.26l-5.27-3.57c-1.59-1.06-2.51-2.72-2.51-4.28,0-2.62,1.7-4.45,4.24-4.84v.53c-1.38.28-2.33,1.02-2.33,2.05,0,1.1.74,1.55,2.3,2.62l3.68,2.51c2.54,1.73,3.15,3.36,3.15,5.16,0,2.79-2.23,5.51-5.73,5.65v-.53c2.26-.18,3.96-1.45,3.96-3.04ZM157.95,14.21v-.57c1.52.07,2.58,1.17,3.29,1.17.6,0,.74-.53.74-1.17h.57v4.91h-.6c0-2.23-2.05-4.24-3.99-4.35Z"/>
          <path class="cls-2" d="M166.71,26.34v-6.86c0-3.43,2.33-5.55,5.3-5.83v.57c-.92.21-1.59.85-1.59,2.05v12.97c0,1.31.21,1.98,1.59,2.37v.57c-3.32-.32-5.3-2.44-5.3-5.83ZM174.66,22.38v-6.11c0-1.2-.67-1.84-1.59-2.05v-.57c3,.25,5.34,2.4,5.34,5.83v3.46h-7.46v-.57h3.71ZM177.77,26.34h.57c0,3.07-2.37,5.55-5.34,5.83v-.57c2.58-.25,4.77-2.51,4.77-5.27Z"/>
        </g>
        <g>
          <g>
            <path class="cls-1" d="M13.64,2.63l-1.86,1.86v12.77s11.21-11.21,11.21-11.21c.3-.81.53-2.95-1.04-4.52-2.71-2.71-5.73-1.48-8.31,1.1Z"/>
            <path class="cls-1" d="M9.47,6.8l-3.64,3.64-3.2,3.2C.05,16.23-1.18,19.24,1.53,21.95c1.57,1.57,3.71,1.34,4.52,1.04l3.43-3.43V6.8Z"/>
          </g>
          <g>
            <path class="cls-1" d="M24.86,7.3l-2.64,2.64v14.38s4.79-4.79,4.79-4.79l2.71-2.71c2.76-2.76,3.44-5.81.74-8.5-1.68-1.68-3.99-1.82-5.6-1.02Z"/>
            <path class="cls-1" d="M19.82,12.35c-4.31,4.31-12.02,12.02-12.81,12.81-.81,1.61-.66,3.92,1.02,5.6,2.69,2.69,5.75,2.01,8.5-.74l3.28-3.28v-14.38Z"/>
          </g>
        </g>
      </g>
      <g>
        <path class="cls-2" d="M129.13,51.42h-.84l-3.08-6.07h1.91l1.6,3.5,1.62-3.5h.78l1.62,3.5,1.6-3.5h1.9l-3.08,6.07h-.84l-1.6-3.57-1.6,3.57Z"/>
        <path class="cls-2" d="M142.88,49.72c-.18.45-.87,1.89-2.98,1.89-.98,0-1.72-.28-2.33-.85-.67-.63-.95-1.42-.95-2.37,0-1.2.49-1.95.92-2.38.71-.7,1.55-.85,2.28-.85,1.23,0,1.95.49,2.37.99.64.77.73,1.72.73,2.38v.14h-4.54c0,.36.1.76.29,1.02.18.25.56.57,1.22.57s1.13-.31,1.41-.8l1.57.25ZM141.31,47.58c-.14-.83-.81-1.22-1.44-1.22s-1.29.41-1.43,1.22h2.87Z"/>
        <path class="cls-2" d="M145.94,46.14c.6-.84,1.46-.98,1.98-.98,1.79,0,2.98,1.39,2.98,3.22s-1.23,3.24-3.03,3.24c-.39,0-1.27-.07-1.93-.98v.78h-1.71v-10.21h1.71v4.93ZM145.77,48.38c0,.97.7,1.72,1.68,1.72s1.68-.76,1.68-1.72-.7-1.71-1.68-1.71-1.68.74-1.68,1.71Z"/>
        <path class="cls-2" d="M160.12,41.21h1.71v10.21h-1.71v-.78c-.62.88-1.43.98-1.86.98-1.86,0-3.1-1.46-3.1-3.24s1.22-3.22,3.01-3.22c.46,0,1.37.08,1.95.98v-4.93ZM156.93,48.38c0,.97.7,1.72,1.68,1.72s1.68-.76,1.68-1.72-.7-1.71-1.68-1.71-1.68.74-1.68,1.71Z"/>
        <path class="cls-2" d="M169.41,49.72c-.18.45-.87,1.89-2.98,1.89-.98,0-1.72-.28-2.33-.85-.67-.63-.95-1.42-.95-2.37,0-1.2.49-1.95.92-2.38.71-.7,1.55-.85,2.28-.85,1.23,0,1.95.49,2.37.99.64.77.73,1.72.73,2.38v.14h-4.54c0,.36.1.76.29,1.02.18.25.56.57,1.22.57s1.13-.31,1.41-.8l1.57.25ZM167.84,47.58c-.14-.83-.81-1.22-1.44-1.22s-1.29.41-1.43,1.22h2.87Z"/>
        <path class="cls-2" d="M174.07,46.8c-.41-.38-.81-.41-.99-.41-.41,0-.66.2-.66.49,0,.15.07.39.55.55l.41.13c.48.15,1.19.39,1.54.87.18.25.31.62.31,1.01,0,.55-.18,1.09-.67,1.54-.49.45-1.08.64-1.82.64-1.26,0-1.98-.6-2.35-1.01l.9-1.04c.34.39.84.7,1.34.7.48,0,.84-.24.84-.66,0-.38-.31-.53-.53-.62l-.39-.14c-.43-.15-.94-.35-1.3-.73-.28-.29-.46-.67-.46-1.16,0-.59.28-1.08.63-1.37.48-.38,1.09-.43,1.58-.43.45,0,1.16.06,1.93.64l-.84.99Z"/>
        <path class="cls-2" d="M177.27,41.77c.56,0,1.02.46,1.02,1.02s-.46,1.02-1.02,1.02-1.02-.46-1.02-1.02.46-1.02,1.02-1.02ZM178.13,45.35v6.07h-1.71v-6.07h1.71Z"/>
        <path class="cls-2" d="M184.37,45.35h1.71v5.79c0,.92-.08,1.89-.84,2.65-.42.42-1.15.85-2.4.85-1.18,0-1.88-.35-2.27-.7-.48-.41-.84-1.12-.98-1.81h1.85c.07.28.22.56.42.73.34.31.8.32,1.04.32.49,0,.81-.17,1.04-.38.39-.38.43-.85.43-1.34v-.85c-.59.9-1.4,1.01-1.86,1.01-.81,0-1.51-.25-2.1-.83-.45-.45-.97-1.23-.97-2.41,0-.95.35-1.83.94-2.41.53-.52,1.27-.81,2.09-.81,1.13,0,1.67.62,1.91.98v-.78ZM181.75,47.09c-.28.25-.55.66-.55,1.29,0,.53.2.92.45,1.19.36.39.83.53,1.23.53s.84-.15,1.13-.42c.35-.32.55-.81.55-1.3,0-.57-.25-.97-.49-1.22-.34-.35-.73-.49-1.19-.49-.55,0-.92.22-1.13.42Z"/>
        <path class="cls-2" d="M187.7,45.35h1.71v.78c.32-.45.9-.98,1.88-.98.53,0,1.32.15,1.79.74.42.52.48,1.12.48,1.71v3.81h-1.71v-3.31c0-.34-.01-.87-.32-1.19-.27-.28-.63-.31-.8-.31-.45,0-.8.15-1.05.53-.25.39-.27.83-.27,1.18v3.1h-1.71v-6.07Z"/>
      </g>
      <g>
        <path class="cls-2" d="M212.9,41.21h1.71v10.21h-1.71v-.78c-.62.88-1.43.98-1.86.98-1.86,0-3.1-1.46-3.1-3.24s1.22-3.22,3.01-3.22c.46,0,1.37.08,1.95.98v-4.93ZM209.7,48.38c0,.97.7,1.72,1.68,1.72s1.68-.76,1.68-1.72-.7-1.71-1.68-1.71-1.68.74-1.68,1.71Z"/>
        <path class="cls-2" d="M222.18,49.72c-.18.45-.87,1.89-2.98,1.89-.98,0-1.72-.28-2.33-.85-.67-.63-.95-1.42-.95-2.37,0-1.2.49-1.95.92-2.38.71-.7,1.55-.85,2.28-.85,1.23,0,1.95.49,2.37.99.64.77.73,1.72.73,2.38v.14h-4.54c0,.36.1.76.29,1.02.18.25.56.57,1.22.57s1.13-.31,1.41-.8l1.57.25ZM220.61,47.58c-.14-.83-.81-1.22-1.44-1.22s-1.29.41-1.43,1.22h2.87Z"/>
        <path class="cls-2" d="M224.51,45.35l1.6,3.42,1.6-3.42h1.9l-3.05,6.07h-.9l-3.05-6.07h1.91Z"/>
        <path class="cls-2" d="M236.26,49.72c-.18.45-.87,1.89-2.98,1.89-.98,0-1.72-.28-2.33-.85-.67-.63-.95-1.42-.95-2.37,0-1.2.49-1.95.92-2.38.71-.7,1.55-.85,2.28-.85,1.23,0,1.95.49,2.37.99.64.77.73,1.72.73,2.38v.14h-4.54c0,.36.1.76.29,1.02.18.25.56.57,1.22.57s1.13-.31,1.41-.8l1.57.25ZM234.69,47.58c-.14-.83-.81-1.22-1.44-1.22s-1.29.41-1.43,1.22h2.87Z"/>
        <path class="cls-2" d="M239.33,41.21v10.21h-1.71v-10.21h1.71Z"/>
        <path class="cls-2" d="M246.57,46.01c.6.55,1.02,1.39,1.02,2.38s-.42,1.82-1.02,2.37c-.52.48-1.3.85-2.45.85s-1.93-.38-2.45-.85c-.6-.55-1.02-1.39-1.02-2.37s.42-1.83,1.02-2.38c.52-.48,1.3-.85,2.45-.85s1.93.38,2.45.85ZM245.82,48.39c0-.95-.73-1.72-1.71-1.72s-1.71.77-1.71,1.72.71,1.71,1.71,1.71,1.71-.78,1.71-1.71Z"/>
        <path class="cls-2" d="M250.61,54.63h-1.71v-9.27h1.71v.78c.27-.38.85-.98,1.98-.98.53,0,1.39.13,2.07.81.45.45.91,1.2.91,2.41,0,1.37-.6,2.12-.95,2.45-.46.43-1.16.78-2.06.78-.42,0-1.27-.07-1.95-.98v3.99ZM251.02,47.08c-.38.32-.57.74-.57,1.3s.22,1.02.56,1.32c.22.2.59.41,1.12.41.56,0,.92-.22,1.15-.43.36-.34.53-.84.53-1.29s-.18-.95-.52-1.27c-.31-.28-.76-.43-1.16-.43-.45,0-.8.13-1.11.41Z"/>
        <path class="cls-2" d="M256.88,45.35h1.71v.69c.64-.81,1.44-.88,1.81-.88,1.27,0,1.77.8,1.92,1.11.29-.48.9-1.11,1.95-1.11.94,0,1.4.43,1.64.74.39.52.42,1.04.42,1.71v3.81h-1.71v-3.31c0-.71-.15-1.04-.28-1.19-.22-.28-.53-.31-.7-.31-.46,0-.76.21-.94.53-.22.36-.24.85-.24,1.18v3.1h-1.71v-3.31c0-.71-.15-1.04-.28-1.19-.22-.28-.53-.31-.7-.31-.46,0-.76.21-.94.53-.22.36-.24.85-.24,1.18v3.1h-1.71v-6.07Z"/>
        <path class="cls-2" d="M273.89,49.72c-.18.45-.87,1.89-2.98,1.89-.98,0-1.72-.28-2.33-.85-.67-.63-.95-1.42-.95-2.37,0-1.2.49-1.95.92-2.38.71-.7,1.55-.85,2.28-.85,1.23,0,1.95.49,2.37.99.64.77.73,1.72.73,2.38v.14h-4.54c0,.36.1.76.29,1.02.18.25.56.57,1.22.57s1.13-.31,1.41-.8l1.57.25ZM272.33,47.58c-.14-.83-.81-1.22-1.44-1.22s-1.29.41-1.43,1.22h2.87Z"/>
        <path class="cls-2" d="M275.25,45.35h1.71v.78c.32-.45.9-.98,1.88-.98.53,0,1.32.15,1.79.74.42.52.48,1.12.48,1.71v3.81h-1.71v-3.31c0-.34-.01-.87-.32-1.19-.27-.28-.63-.31-.8-.31-.45,0-.8.15-1.05.53-.25.39-.27.83-.27,1.18v3.1h-1.71v-6.07Z"/>
        <path class="cls-2" d="M284.43,46.81v4.61h-1.71v-4.61h-.67v-1.46h.67v-2.07h1.71v2.07h1.18v1.46h-1.18Z"/>
      </g>
      <path class="cls-2" d="M197.8,47.32h2.54v-2.41h1.01v2.41h2.54v.92h-2.54v2.41h-1.01v-2.41h-2.54v-.92Z"/>
    </g>
  </g>
</svg>