<?xml version="1.0" encoding="UTF-8"?>
<svg id="Layer_2" data-name="Layer 2" xmlns="http://www.w3.org/2000/svg" viewBox="0 0 359.72 35.14">
  <defs>
    <style>
      .cls-1, .cls-2 {
        fill: #79530b;
      }

      .cls-3 {
        fill: #516a6a;
        font-family: ErnestinePro-Light, 'Ernestine Pro';
        font-weight: 300;
      }

      .cls-3, .cls-2 {
        font-size: 32.33px;
      }

      .cls-4 {
        letter-spacing: -.1em;
      }

      .cls-5 {
        letter-spacing: -.06em;
      }

      .cls-6, .cls-2 {
        letter-spacing: -.06em;
      }

      .cls-7 {
        letter-spacing: -.06em;
      }

      .cls-8 {
        letter-spacing: -.16em;
      }

      .cls-2 {
        font-family: ErnestinePro, ErnestinePro;
      }
    </style>
  </defs>
  <g id="home_page" data-name="home page">
    <text class="cls-2" transform="translate(34.09 27.06)"><tspan x="0" y="0">Bakehouse </tspan></text>
    <text class="cls-3" transform="translate(197.96 27.06)"><tspan class="cls-5" x="0" y="0">w</tspan><tspan class="cls-6" x="23.82" y="0">e</tspan><tspan class="cls-4" x="40.05" y="0">b</tspan><tspan class="cls-8" x="56.02" y="0">/</tspan><tspan class="cls-7" x="65.2" y="0">design</tspan></text>
    <g>
      <g>
        <path class="cls-1" d="M21.82,7.48h-2.41l-8.26,8.26h14.51c.71-.33,2.25-1.56,2.25-3.59,0-3.51-2.74-4.66-6.09-4.66Z"/>
        <path class="cls-1" d="M16.43,7.48H7.58c-3.35,0-6.09,1.15-6.09,4.66,0,2.03,1.54,3.26,2.25,3.59h4.44l8.26-8.26Z"/>
      </g>
      <g>
        <path class="cls-1" d="M26.06,17.76h-3.42l-9.3,9.3h9.7c3.57,0,5.98-1.54,5.98-5.02,0-2.17-1.4-3.76-2.96-4.28Z"/>
        <path class="cls-1" d="M19.53,17.76H2.96c-1.56.52-2.96,2.11-2.96,4.28,0,3.48,2.41,5.02,5.98,5.02h4.25l9.3-9.3Z"/>
      </g>
    </g>
  </g>
</svg>